# xmcd
#
# Track frame offsets:
#	150
#	15240
#	30243
#	45341
#	59904
#	72194
#	88661
#	100501
#	111211
#	125011
#	135879
#	149534
#	158619
#	172029
#	185784
#	199960
#	214895
#
# Disc length: 3036 seconds
#
# Revision: 0
# Processed by: cddbd v1.5.2PL0 Copyright (c) Steve Scherf et al.
# Submitted via: EasyCDDAExtractor 16.0.8.2
#
DISCID=ed0bda11
DTITLE=Σακελλαρίου Ρίτα - Εγώ, η Ρίτα! 3
DYEAR=2014
DGENRE=Λαϊκή
TTITLE0=Αρέσω [Νίκος Καρβέλας]
TTITLE1=Γόρδιος δεσμός [Σταμ. Καλλιανός-Δ. Ιατρόπουλος]
TTITLE2=Η Ελλάδα όλη θέλει [Ανδ. Μέξας-Γ. Παπαγιαννόπουλος]
TTITLE3=Μέσ' στης πόλης το χαμάμ [Γ. Μανισαλής-Φ. Ζησούλης]
TTITLE4=Πολλά λες [Τάκης Μουσαφίρης]
TTITLE5=Εγώ δεν πάω μέγαρο [Ν. Τερζής-Γ. Παυριανός]
TTITLE6=Οι σαραντάρες [Γιάννης Καραλής]
TTITLE7=Είναι γάτα (ο κοντός με την γραβάτα [Ν. Καρβέλας]
TTITLE8=Καλέ κάτσε καλά [Τάκης Μουσαφίρης]
TTITLE9=Όλα, παιδί μου, όλα [Τάκης Μουσαφίρης]
TTITLE10=Να πέθαινες να γλύτωνα [Γ.Μανισαλής-Γ.Γιαννακόπουλος]
TTITLE11=Άντε γειά σου χρυσό μου [Τ. Μουσαφίρης-Κ. Τουρνάς]
TTITLE12=Ας έβρισκα έναν άνθρωπο [Γ. Μανισαλής-Κ. Ψυχογιός]
TTITLE13=Από συμφέρον μονάχα με αγαπούσες [Ν. Καρβέλας]
TTITLE14=Στην αγορά του Πειραιά [Στ. Χρυσίνης-Ν. Δεπάστας]
TTITLE15=Είκοσι Μάηδες [Ανδ. Μέξας-Λευτ. Χαψιάδης]
TTITLE16=Εγώ είμαι η Ρίτα [Χάρης Καλούδης-Μπάμπης Διπλάρος]
EXTD=
EXTT0=
EXTT1=
EXTT2=
EXTT3=
EXTT4=
EXTT5=
EXTT6=
EXTT7=
EXTT8=
EXTT9=
EXTT10=
EXTT11=
EXTT12=
EXTT13=
EXTT14=
EXTT15=
EXTT16=
PLAYORDER=
